<?xml version="1.0" encoding="UTF-8" standalone="no"?>
<svg
   xmlns:dc="http://purl.org/dc/elements/1.1/"
   xmlns:cc="http://creativecommons.org/ns#"
   xmlns:rdf="http://www.w3.org/1999/02/22-rdf-syntax-ns#"
   xmlns:svg="http://www.w3.org/2000/svg"
   xmlns="http://www.w3.org/2000/svg"
   version="1.1"
   viewBox="0 0 132.29167 132.29167"
   height="500"
   width="500">
  <path
     style="fill:#3f8f8b;fill-opacity:1;stroke:none;stroke-width:4.89890051px;stroke-linecap:butt;stroke-linejoin:miter;stroke-opacity:1"
     d="M 54.828125 0 C 29.976391 0.0014206812 9.8295457 20.14827 9.828125 45 C 9.8295945 69.851731 29.976391 89.996626 54.828125 89.998047 C 62.035631 89.993511 69.136315 88.258465 75.533203 84.9375 L 309.5332 188.04297 C 319.65516 192.89626 325.09868 186.89306 328.40039 179.69922 L 369.22852 86.285156 C 373.32272 78.872138 371.66821 73.731783 353.14453 65.570312 C 334.62086 57.408842 330.96964 60.684094 327.1582 68.039062 L 301.48633 124.64453 C 300.23103 128.6243 297.69322 130.0406 293.14258 127.42969 L 99.732422 41.984375 C 98.144835 18.353696 78.512058 -0.0015186592 54.828125 0 z M 451.25195 9.0800781 C 426.40375 9.4985444 406.59811 29.979868 407.01367 54.828125 C 407.13915 62.034539 408.99403 69.107006 412.42188 75.447266 L 313.25586 311.14258 C 308.57309 321.34455 314.66779 326.6886 321.91602 329.86914 L 416.00195 369.12305 C 423.48262 373.09229 428.59385 371.35137 436.44336 352.69336 C 444.29287 334.03535 440.95695 330.43945 433.53906 326.75195 L 376.51172 302.0332 C 372.51145 300.84486 371.0537 298.33209 373.58789 293.73828 L 455.77344 98.919922 C 479.37417 96.936052 497.39893 76.998932 497 53.318359 C 496.58161 28.470151 476.10023 8.6645021 451.25195 9.0800781 z M 195.83984 14.943359 C 193.74171 14.914918 191.73858 16.122634 190.8418 18.171875 L 177.42773 48.826172 C 176.23202 51.558493 177.46885 54.722258 180.20117 55.917969 L 282.25977 100.58008 C 284.99209 101.77579 288.1539 100.53896 289.34961 97.806641 L 302.76367 67.152344 C 303.95938 64.420023 302.72256 61.256257 299.99023 60.060547 L 197.93359 15.398438 C 197.25051 15.09951 196.53922 14.95284 195.83984 14.943359 z M 54.0625 23.814453 A 23.506026 23.506024 0 0 1 77.5625 47.314453 A 23.506026 23.506024 0 0 1 54.0625 70.824219 A 23.506026 23.506024 0 0 1 30.552734 47.314453 A 23.506026 23.506024 0 0 1 54.0625 23.814453 z M 449.28516 29.841797 A 23.506026 23.506024 2.37458 0 1 473.17578 52.953125 A 23.506026 23.506024 2.37458 0 1 450.07227 76.84375 A 23.506026 23.506024 2.37458 0 1 426.17383 53.742188 A 23.506026 23.506024 2.37458 0 1 449.28516 29.841797 z M 75.140625 132.80469 C 70.431195 132.89747 66.204334 137.56807 60.5625 150.97852 C 52.712992 169.63653 56.048915 173.23243 63.466797 176.91992 L 120.49414 201.63867 C 124.49441 202.82701 125.95216 205.33979 123.41797 209.93359 L 41.232422 404.75195 C 17.631704 406.73583 -0.39305973 426.67292 0.005859375 450.35352 C 0.4242754 475.20172 20.90565 495.0054 45.753906 494.58984 C 70.602119 494.17137 90.407765 473.69004 89.992188 448.8418 C 89.866556 441.63537 88.011815 434.56488 84.583984 428.22461 L 183.75 192.5293 C 188.43277 182.32732 182.33807 176.98327 175.08984 173.80273 L 81.003906 134.54883 C 78.899967 133.43248 76.983446 132.76838 75.140625 132.80469 z M 448.13672 176.30078 C 446.0384 176.30755 444.05563 177.54928 443.19336 179.61328 L 400.25 282.4043 C 399.1003 285.1563 400.39058 288.29757 403.14258 289.44727 L 434.01758 302.3457 C 436.76958 303.4954 439.91085 302.20708 441.06055 299.45508 L 484.00391 196.66211 C 485.1536 193.91011 483.86333 190.76884 481.11133 189.61914 L 450.23633 176.7207 C 449.54833 176.43328 448.83616 176.29853 448.13672 176.30078 z M 60.888672 200.9043 C 58.790352 200.91106 56.807585 202.1528 55.945312 204.2168 L 13.001953 307.00977 C 11.852257 309.76177 13.142532 312.90304 15.894531 314.05273 L 46.769531 326.95117 C 49.521531 328.10087 52.662804 326.81059 53.8125 324.05859 L 96.755859 221.26562 C 97.905555 218.51363 96.615281 215.37431 93.863281 214.22461 L 62.988281 201.32422 C 62.300281 201.03679 61.588112 200.90204 60.888672 200.9043 z M 184.31836 314.60938 C 178.36253 314.68736 174.76041 319.47399 172.375 324.91016 L 133.12109 418.99609 C 129.15185 426.47676 130.89277 431.58799 149.55078 439.4375 C 168.20879 447.28701 171.8047 443.95109 175.49219 436.5332 L 200.21094 379.50586 C 201.39928 375.5056 203.91205 374.04784 208.50586 376.58203 L 403.32422 458.76758 C 405.30805 482.36827 425.24523 500.39307 448.92578 499.99414 C 473.77398 499.57575 493.57771 479.09437 493.16211 454.24609 C 492.74364 429.39789 472.26234 409.59225 447.41406 410.00781 C 440.20768 410.13329 433.13715 411.98817 426.79688 415.41602 L 191.10156 316.25 C 188.55107 315.07931 186.30364 314.58338 184.31836 314.60938 z M 217.73828 402.82422 C 215.63996 402.83099 213.65915 404.07272 212.79688 406.13672 L 199.89648 437.01172 C 198.74679 439.76372 200.03706 442.90499 202.78906 444.05469 L 305.58203 486.99805 C 308.33403 488.14774 311.4753 486.85747 312.625 484.10547 L 325.52344 453.23047 C 326.67313 450.47847 325.38286 447.3372 322.63086 446.1875 L 219.83789 403.24414 C 219.14989 402.95672 218.43772 402.82196 217.73828 402.82422 z M 46.933594 426.82812 A 23.506026 23.506024 2.3745816 0 1 70.832031 449.92969 A 23.506026 23.506024 2.3745816 0 1 47.722656 473.83008 A 23.506026 23.506024 2.3745816 0 1 23.832031 450.71875 A 23.506026 23.506024 2.3745816 0 1 46.933594 426.82812 z M 448.50195 429.16797 A 23.506026 23.506024 2.3745816 0 1 472.40234 452.27734 A 23.506026 23.506024 2.3745816 0 1 449.29102 476.16797 A 23.506026 23.506024 2.3745816 0 1 425.40039 453.06641 A 23.506026 23.506024 2.3745816 0 1 448.50195 429.16797 z "
     transform="scale(0.26458334)"
     id="path4758" />
</svg>
